<?xml version="1.0" encoding="UTF-8"?>
<svg xmlns="http://www.w3.org/2000/svg" xmlns:xlink="http://www.w3.org/1999/xlink" width="37pt" height="48pt" viewBox="0 0 37 48" version="1.1">
<defs>
<radialGradient id="radial0" gradientUnits="userSpaceOnUse" cx="376.02" cy="287.71" fx="376.02" fy="287.71" r="182.64" gradientTransform="matrix(0.0970467,-0.000908244,0.000342861,0.0349046,-18.499754,26.986208)">
<stop offset="0" style="stop-color:rgb(89.019608%,89.019608%,89.019608%);stop-opacity:1;"/>
<stop offset="1" style="stop-color:rgb(40%,39.215686%,48.235294%);stop-opacity:0.898039;"/>
</radialGradient>
<linearGradient id="linear0" gradientUnits="userSpaceOnUse" x1="425.67" y1="362.36" x2="559.07" y2="362.36" spreadMethod="reflect" gradientTransform="matrix(0.0957819,0,0,0.0934879,-17.923146,10.129148)">
<stop offset="0" style="stop-color:rgb(89.019608%,89.019608%,89.019608%);stop-opacity:1;"/>
<stop offset="1" style="stop-color:rgb(40%,39.215686%,48.235294%);stop-opacity:0.898039;"/>
</linearGradient>
<radialGradient id="radial1" gradientUnits="userSpaceOnUse" cx="376.02" cy="287.71" fx="376.02" fy="287.71" r="182.64" gradientTransform="matrix(0.0970467,-0.000908244,0.000342861,0.0349046,-18.499754,19.507178)">
<stop offset="0" style="stop-color:rgb(89.019608%,89.019608%,89.019608%);stop-opacity:1;"/>
<stop offset="1" style="stop-color:rgb(40%,39.215686%,48.235294%);stop-opacity:0.898039;"/>
</radialGradient>
<linearGradient id="linear1" gradientUnits="userSpaceOnUse" x1="425.67" y1="362.36" x2="559.07" y2="362.36" spreadMethod="reflect" gradientTransform="matrix(0.0957819,0,0,0.0934879,-17.923146,2.650119)">
<stop offset="0" style="stop-color:rgb(89.019608%,89.019608%,89.019608%);stop-opacity:1;"/>
<stop offset="1" style="stop-color:rgb(40%,39.215686%,48.235294%);stop-opacity:0.898039;"/>
</linearGradient>
<radialGradient id="radial2" gradientUnits="userSpaceOnUse" cx="376.02" cy="287.71" fx="376.02" fy="287.71" r="182.64" gradientTransform="matrix(0.0970467,-0.000908244,0.000342861,0.0349046,-18.499754,12.028149)">
<stop offset="0" style="stop-color:rgb(89.019608%,89.019608%,89.019608%);stop-opacity:1;"/>
<stop offset="1" style="stop-color:rgb(40%,39.215686%,48.235294%);stop-opacity:0.898039;"/>
</radialGradient>
<linearGradient id="linear2" gradientUnits="userSpaceOnUse" x1="425.67" y1="362.36" x2="559.07" y2="362.36" spreadMethod="reflect" gradientTransform="matrix(0.0957819,0,0,0.0934879,-17.923146,-4.82891)">
<stop offset="0" style="stop-color:rgb(89.019608%,89.019608%,89.019608%);stop-opacity:1;"/>
<stop offset="1" style="stop-color:rgb(40%,39.215686%,48.235294%);stop-opacity:0.898039;"/>
</linearGradient>
<radialGradient id="radial3" gradientUnits="userSpaceOnUse" cx="376.02" cy="287.71" fx="376.02" fy="287.71" r="182.64" gradientTransform="matrix(0.0970467,-0.000908244,0.000342861,0.0349046,-18.499754,4.549119)">
<stop offset="0" style="stop-color:rgb(89.019608%,89.019608%,89.019608%);stop-opacity:1;"/>
<stop offset="1" style="stop-color:rgb(40%,39.215686%,48.235294%);stop-opacity:0.898039;"/>
</radialGradient>
<linearGradient id="linear3" gradientUnits="userSpaceOnUse" x1="425.67" y1="362.36" x2="559.07" y2="362.36" spreadMethod="reflect" gradientTransform="matrix(0.0957819,0,0,0.0934879,-17.923146,-12.30794)">
<stop offset="0" style="stop-color:rgb(89.019608%,89.019608%,89.019608%);stop-opacity:1;"/>
<stop offset="1" style="stop-color:rgb(40%,39.215686%,48.235294%);stop-opacity:0.898039;"/>
</linearGradient>
<radialGradient id="radial4" gradientUnits="userSpaceOnUse" cx="376.02" cy="287.71" fx="376.02" fy="287.71" r="182.64" gradientTransform="matrix(0.0970467,-0.000908244,0.000342861,0.0349046,-18.499754,-2.92991)">
<stop offset="0" style="stop-color:rgb(89.019608%,89.019608%,89.019608%);stop-opacity:1;"/>
<stop offset="1" style="stop-color:rgb(40%,39.215686%,48.235294%);stop-opacity:0.898039;"/>
</radialGradient>
<linearGradient id="linear4" gradientUnits="userSpaceOnUse" x1="425.67" y1="362.36" x2="559.07" y2="362.36" spreadMethod="reflect" gradientTransform="matrix(0.0957819,0,0,0.0934879,-17.923146,-19.786969)">
<stop offset="0" style="stop-color:rgb(89.019608%,89.019608%,89.019608%);stop-opacity:1;"/>
<stop offset="1" style="stop-color:rgb(40%,39.215686%,48.235294%);stop-opacity:0.898039;"/>
</linearGradient>
</defs>
<g id="surface1">
<path style=" stroke:none;fill-rule:nonzero;fill:url(#radial0);" d="M 35.851562 36.527344 C 35.851562 39.660156 28.039062 42.203125 18.40625 42.203125 C 8.769531 42.203125 0.957031 39.660156 0.957031 36.527344 C 0.957031 33.390625 8.769531 30.851562 18.40625 30.851562 C 28.039062 30.851562 35.851562 33.390625 35.851562 36.527344 Z M 35.851562 36.527344 "/>
<path style=" stroke:none;fill-rule:nonzero;fill:url(#linear0);" d="M 0.957031 36.460938 C 0.957031 39.59375 8.769531 42.136719 18.40625 42.136719 C 28.039062 42.136719 35.851562 39.59375 35.851562 36.460938 L 35.851562 41.136719 C 35.851562 44.269531 28.039062 46.808594 18.40625 46.808594 C 8.769531 46.808594 0.957031 44.269531 0.957031 41.136719 Z M 0.957031 36.460938 "/>
<path style=" stroke:none;fill-rule:nonzero;fill:url(#radial1);" d="M 35.851562 29.046875 C 35.851562 32.183594 28.039062 34.722656 18.40625 34.722656 C 8.769531 34.722656 0.957031 32.183594 0.957031 29.046875 C 0.957031 25.914062 8.769531 23.371094 18.40625 23.371094 C 28.039062 23.371094 35.851562 25.914062 35.851562 29.046875 Z M 35.851562 29.046875 "/>
<path style=" stroke:none;fill-rule:nonzero;fill:url(#linear1);" d="M 0.957031 28.980469 C 0.957031 32.117188 8.769531 34.660156 18.40625 34.660156 C 28.039062 34.660156 35.851562 32.117188 35.851562 28.980469 L 35.851562 33.65625 C 35.851562 36.789062 28.039062 39.332031 18.40625 39.332031 C 8.769531 39.332031 0.957031 36.789062 0.957031 33.65625 Z M 0.957031 28.980469 "/>
<path style=" stroke:none;fill-rule:nonzero;fill:url(#radial2);" d="M 35.851562 21.570312 C 35.851562 24.703125 28.039062 27.246094 18.40625 27.246094 C 8.769531 27.246094 0.957031 24.703125 0.957031 21.570312 C 0.957031 18.433594 8.769531 15.894531 18.40625 15.894531 C 28.039062 15.894531 35.851562 18.433594 35.851562 21.570312 Z M 35.851562 21.570312 "/>
<path style=" stroke:none;fill-rule:nonzero;fill:url(#linear2);" d="M 0.957031 21.503906 C 0.957031 24.640625 8.769531 27.175781 18.40625 27.175781 C 28.039062 27.175781 35.851562 24.640625 35.851562 21.503906 L 35.851562 26.175781 C 35.851562 29.3125 28.039062 31.851562 18.40625 31.851562 C 8.769531 31.851562 0.957031 29.3125 0.957031 26.175781 Z M 0.957031 21.503906 "/>
<path style=" stroke:none;fill-rule:nonzero;fill:url(#radial3);" d="M 35.851562 14.089844 C 35.851562 17.222656 28.039062 19.765625 18.40625 19.765625 C 8.769531 19.765625 0.957031 17.222656 0.957031 14.089844 C 0.957031 10.953125 8.769531 8.410156 18.40625 8.410156 C 28.039062 8.410156 35.851562 10.953125 35.851562 14.089844 Z M 35.851562 14.089844 "/>
<path style=" stroke:none;fill-rule:nonzero;fill:url(#linear3);" d="M 0.957031 14.023438 C 0.957031 17.15625 8.769531 19.699219 18.40625 19.699219 C 28.039062 19.699219 35.851562 17.15625 35.851562 14.023438 L 35.851562 18.699219 C 35.851562 21.832031 28.039062 24.375 18.40625 24.375 C 8.769531 24.375 0.957031 21.832031 0.957031 18.699219 Z M 0.957031 14.023438 "/>
<path style=" stroke:none;fill-rule:nonzero;fill:url(#radial4);" d="M 35.851562 6.609375 C 35.851562 9.746094 28.039062 12.285156 18.40625 12.285156 C 8.769531 12.285156 0.957031 9.746094 0.957031 6.609375 C 0.957031 3.476562 8.769531 0.933594 18.40625 0.933594 C 28.039062 0.933594 35.851562 3.476562 35.851562 6.609375 Z M 35.851562 6.609375 "/>
<path style=" stroke:none;fill-rule:nonzero;fill:url(#linear4);" d="M 0.957031 6.542969 C 0.957031 9.679688 8.769531 12.21875 18.40625 12.21875 C 28.039062 12.21875 35.851562 9.679688 35.851562 6.542969 L 35.851562 11.21875 C 35.851562 14.351562 28.039062 16.894531 18.40625 16.894531 C 8.769531 16.894531 0.957031 14.351562 0.957031 11.21875 Z M 0.957031 6.542969 "/>
<path style="fill-rule:nonzero;fill:rgb(25.490196%,41.176471%,88.235294%);fill-opacity:1;stroke-width:1;stroke-linecap:butt;stroke-linejoin:miter;stroke:rgb(0%,0%,0%);stroke-opacity:1;stroke-miterlimit:4;" d="M 217.68188 450.133573 C 215.928221 450.21714 214.215344 450.300707 212.461685 450.342491 C 223.228337 464.131044 239.500664 483.93642 254.100897 497.09822 C 254.467942 497.056436 254.794204 497.014653 255.120466 496.972869 C 253.774634 495.343313 252.428803 493.63019 251.082971 491.95885 C 239.500664 477.96138 228.326184 464.005693 217.68188 450.133573 Z M 217.68188 450.133573 " transform="matrix(0.0957819,0,0,0.0934879,0.00158668,0)"/>
<path style="fill-rule:nonzero;fill:rgb(25.490196%,41.176471%,88.235294%);fill-opacity:1;stroke-width:1;stroke-linecap:butt;stroke-linejoin:miter;stroke:rgb(0%,0%,0%);stroke-opacity:1;stroke-miterlimit:4;" d="M 119.803223 365.730917 C 121.067489 367.694741 122.413321 369.658565 123.759152 371.580606 C 123.759152 371.580606 144.721498 362.847856 166.988892 380.772975 C 146.719854 369.616782 129.835786 379.895521 129.835786 379.895521 C 132.201186 382.9875 134.688936 385.995911 137.217468 388.962539 C 137.421381 388.628271 152.10318 377.263161 171.678911 388.920756 C 147.535509 385.118458 141.866704 393.934775 141.866704 393.934775 C 145.944981 398.405609 150.023258 402.751092 154.590929 406.929441 C 154.590929 406.929441 168.090027 406.511606 186.116013 420.676211 C 188.114369 420.676211 190.112725 420.717994 192.151864 420.717994 C 193.375347 420.717994 194.59883 420.717994 195.863096 420.676211 C 183.750612 403.670329 172.657698 386.748014 162.829049 369.909266 C 147.780206 369.11538 133.383887 367.652958 119.803223 365.730917 Z M 175.879537 370.452452 C 184.933313 387.040499 194.843527 403.753896 205.365482 420.55086 C 205.854875 420.509077 206.344269 420.509077 206.833662 420.509077 C 198.024583 397.026753 197.005014 380.898325 198.187714 370.661369 C 196.189358 370.703153 194.150219 370.744936 192.151864 370.744936 C 186.646189 370.744936 181.22208 370.619586 175.879537 370.452452 Z M 175.879537 370.452452 " transform="matrix(0.0957819,0,0,0.0934879,0.00158668,0)"/>
<path style="fill-rule:nonzero;fill:rgb(25.490196%,41.176471%,88.235294%);fill-opacity:1;stroke-width:1;stroke-linecap:butt;stroke-linejoin:miter;stroke:rgb(0%,0%,0%);stroke-opacity:1;stroke-miterlimit:4;" d="M 84.444559 278.236282 C 88.400488 296.788153 94.069293 314.838622 101.614106 331.928071 C 115.276335 334.560431 129.998917 336.607822 145.618719 337.986677 C 137.054336 320.43761 130.080482 303.055677 125.104984 285.715527 C 110.545534 283.793487 96.883304 281.286477 84.444559 278.236282 Z M 138.196254 287.3033 C 143.946625 304.309182 151.205959 321.565765 159.60721 338.989481 C 164.378795 339.323749 169.231945 339.532667 174.125878 339.699801 C 177.429282 312.66588 188.032803 310.158871 188.032803 310.158871 C 186.197579 303.640646 184.484702 296.788153 182.934957 289.893877 C 167.437503 289.684959 152.429442 288.723939 138.196254 287.3033 Z M 192.274212 324.657743 C 192.274212 324.657743 184.362354 325.70233 178.408069 339.825151 C 182.934957 339.950502 187.54341 340.034069 192.151864 340.034069 C 193.823957 340.034069 195.496051 339.992285 197.168145 339.950502 C 195.659182 335.479668 193.987088 330.382082 192.274212 324.657743 Z M 192.274212 324.657743 " transform="matrix(0.0957819,0,0,0.0934879,0.00158668,0)"/>
<path style="fill-rule:nonzero;fill:rgb(25.490196%,41.176471%,88.235294%);fill-opacity:1;stroke-width:1;stroke-linecap:butt;stroke-linejoin:miter;stroke:rgb(0%,0%,0%);stroke-opacity:1;stroke-miterlimit:4;" d="M 80.243933 197.134521 C 78.00088 214.600022 77.960098 232.39979 79.428277 246.940445 C 91.255282 250.074207 104.224204 252.706568 118.171912 254.795742 C 115.602598 237.873427 115.113204 221.16003 116.989212 204.613767 C 103.857159 202.608159 91.540761 200.101149 80.243933 197.134521 Z M 123.228976 205.49122 C 123.228976 222.12105 125.390463 239.043365 129.305609 256.299948 C 144.762281 258.180205 161.197738 259.350143 178.244938 259.809761 C 176.613627 243.973817 175.716406 226.550101 174.085095 209.669569 C 156.263023 209.084601 139.215823 207.663962 123.228976 205.49122 Z M 123.228976 205.49122 " transform="matrix(0.0957819,0,0,0.0934879,0.00158668,0)"/>
<path style="fill-rule:nonzero;fill:rgb(25.490196%,41.176471%,88.235294%);fill-opacity:1;stroke-width:1;stroke-linecap:butt;stroke-linejoin:miter;stroke:rgb(0%,0%,0%);stroke-opacity:1;stroke-miterlimit:4;" d="M 127.266471 128.066407 C 121.760796 127.98284 116.785298 129.152778 112.339976 131.367303 L 112.339976 131.325519 C 99.982795 137.509476 91.581544 151.54873 86.239001 168.679963 C 97.576612 171.39589 109.852226 173.652198 122.902714 175.448888 C 125.186549 167.551808 128.122909 159.654728 131.67101 151.841215 C 129.060913 159.738295 127.10334 167.718942 125.716725 175.82494 C 139.705217 177.663414 154.550146 178.916918 169.966035 179.543671 C 164.256446 150.545926 153.163532 128.484242 127.266471 128.066407 Z M 127.266471 128.066407 " transform="matrix(0.0957819,0,0,0.0934879,0.00158668,0)"/>
</g>
</svg>
