<?xml version="1.0" encoding="UTF-8"?>
<svg xmlns="http://www.w3.org/2000/svg" xmlns:xlink="http://www.w3.org/1999/xlink" width="45pt" height="58pt" viewBox="0 0 45 58" version="1.1">
<defs>
<radialGradient id="radial0" gradientUnits="userSpaceOnUse" cx="376.02" cy="287.71" fx="376.02" fy="287.71" r="182.64" gradientTransform="matrix(0.11803,-0.00109746,0.000416993,0.0421764,-22.4997,32.608334)">
<stop offset="0" style="stop-color:rgb(89.019608%,89.019608%,89.019608%);stop-opacity:1;"/>
<stop offset="1" style="stop-color:rgb(40%,39.215686%,48.235294%);stop-opacity:0.898039;"/>
</radialGradient>
<linearGradient id="linear0" gradientUnits="userSpaceOnUse" x1="425.67" y1="362.36" x2="559.07" y2="362.36" spreadMethod="reflect" gradientTransform="matrix(0.116491,0,0,0.112965,-21.798421,12.239388)">
<stop offset="0" style="stop-color:rgb(89.019608%,89.019608%,89.019608%);stop-opacity:1;"/>
<stop offset="1" style="stop-color:rgb(40%,39.215686%,48.235294%);stop-opacity:0.898039;"/>
</linearGradient>
<radialGradient id="radial1" gradientUnits="userSpaceOnUse" cx="376.02" cy="287.71" fx="376.02" fy="287.71" r="182.64" gradientTransform="matrix(0.11803,-0.00109746,0.000416993,0.0421764,-22.4997,23.571174)">
<stop offset="0" style="stop-color:rgb(89.019608%,89.019608%,89.019608%);stop-opacity:1;"/>
<stop offset="1" style="stop-color:rgb(40%,39.215686%,48.235294%);stop-opacity:0.898039;"/>
</radialGradient>
<linearGradient id="linear1" gradientUnits="userSpaceOnUse" x1="425.67" y1="362.36" x2="559.07" y2="362.36" spreadMethod="reflect" gradientTransform="matrix(0.116491,0,0,0.112965,-21.798421,3.202228)">
<stop offset="0" style="stop-color:rgb(89.019608%,89.019608%,89.019608%);stop-opacity:1;"/>
<stop offset="1" style="stop-color:rgb(40%,39.215686%,48.235294%);stop-opacity:0.898039;"/>
</linearGradient>
<radialGradient id="radial2" gradientUnits="userSpaceOnUse" cx="376.02" cy="287.71" fx="376.02" fy="287.71" r="182.64" gradientTransform="matrix(0.11803,-0.00109746,0.000416993,0.0421764,-22.4997,14.534014)">
<stop offset="0" style="stop-color:rgb(89.019608%,89.019608%,89.019608%);stop-opacity:1;"/>
<stop offset="1" style="stop-color:rgb(40%,39.215686%,48.235294%);stop-opacity:0.898039;"/>
</radialGradient>
<linearGradient id="linear2" gradientUnits="userSpaceOnUse" x1="425.67" y1="362.36" x2="559.07" y2="362.36" spreadMethod="reflect" gradientTransform="matrix(0.116491,0,0,0.112965,-21.798421,-5.834933)">
<stop offset="0" style="stop-color:rgb(89.019608%,89.019608%,89.019608%);stop-opacity:1;"/>
<stop offset="1" style="stop-color:rgb(40%,39.215686%,48.235294%);stop-opacity:0.898039;"/>
</linearGradient>
<radialGradient id="radial3" gradientUnits="userSpaceOnUse" cx="376.02" cy="287.71" fx="376.02" fy="287.71" r="182.64" gradientTransform="matrix(0.11803,-0.00109746,0.000416993,0.0421764,-22.4997,5.496853)">
<stop offset="0" style="stop-color:rgb(89.019608%,89.019608%,89.019608%);stop-opacity:1;"/>
<stop offset="1" style="stop-color:rgb(40%,39.215686%,48.235294%);stop-opacity:0.898039;"/>
</radialGradient>
<linearGradient id="linear3" gradientUnits="userSpaceOnUse" x1="425.67" y1="362.36" x2="559.07" y2="362.36" spreadMethod="reflect" gradientTransform="matrix(0.116491,0,0,0.112965,-21.798421,-14.872094)">
<stop offset="0" style="stop-color:rgb(89.019608%,89.019608%,89.019608%);stop-opacity:1;"/>
<stop offset="1" style="stop-color:rgb(40%,39.215686%,48.235294%);stop-opacity:0.898039;"/>
</linearGradient>
<radialGradient id="radial4" gradientUnits="userSpaceOnUse" cx="376.02" cy="287.71" fx="376.02" fy="287.71" r="182.64" gradientTransform="matrix(0.11803,-0.00109746,0.000416993,0.0421764,-22.4997,-3.540308)">
<stop offset="0" style="stop-color:rgb(89.019608%,89.019608%,89.019608%);stop-opacity:1;"/>
<stop offset="1" style="stop-color:rgb(40%,39.215686%,48.235294%);stop-opacity:0.898039;"/>
</radialGradient>
<linearGradient id="linear4" gradientUnits="userSpaceOnUse" x1="425.67" y1="362.36" x2="559.07" y2="362.36" spreadMethod="reflect" gradientTransform="matrix(0.116491,0,0,0.112965,-21.798421,-23.909254)">
<stop offset="0" style="stop-color:rgb(89.019608%,89.019608%,89.019608%);stop-opacity:1;"/>
<stop offset="1" style="stop-color:rgb(40%,39.215686%,48.235294%);stop-opacity:0.898039;"/>
</linearGradient>
</defs>
<g id="surface1">
<path style=" stroke:none;fill-rule:nonzero;fill:url(#radial0);" d="M 43.605469 44.136719 C 43.605469 47.921875 34.101562 50.996094 22.386719 50.996094 C 10.667969 50.996094 1.164062 47.921875 1.164062 44.136719 C 1.164062 40.347656 10.667969 37.277344 22.386719 37.277344 C 34.101562 37.277344 43.605469 40.347656 43.605469 44.136719 Z M 43.605469 44.136719 "/>
<path style=" stroke:none;fill-rule:nonzero;fill:url(#linear0);" d="M 1.164062 44.054688 C 1.164062 47.84375 10.667969 50.914062 22.386719 50.914062 C 34.101562 50.914062 43.605469 47.84375 43.605469 44.054688 L 43.605469 49.707031 C 43.605469 53.496094 34.101562 56.5625 22.386719 56.5625 C 10.667969 56.5625 1.164062 53.488281 1.164062 49.707031 Z M 1.164062 44.054688 "/>
<path style=" stroke:none;fill-rule:nonzero;fill:url(#radial1);" d="M 43.605469 35.097656 C 43.605469 38.886719 34.101562 41.957031 22.386719 41.957031 C 10.667969 41.957031 1.164062 38.886719 1.164062 35.097656 C 1.164062 31.3125 10.667969 28.242188 22.386719 28.242188 C 34.101562 28.242188 43.605469 31.3125 43.605469 35.097656 Z M 43.605469 35.097656 "/>
<path style=" stroke:none;fill-rule:nonzero;fill:url(#linear1);" d="M 1.164062 35.019531 C 1.164062 38.808594 10.667969 41.878906 22.386719 41.878906 C 34.101562 41.878906 43.605469 38.808594 43.605469 35.019531 L 43.605469 40.667969 C 43.605469 44.453125 34.101562 47.523438 22.386719 47.523438 C 10.667969 47.523438 1.164062 44.453125 1.164062 40.667969 Z M 1.164062 35.019531 "/>
<path style=" stroke:none;fill-rule:nonzero;fill:url(#radial2);" d="M 43.605469 26.0625 C 43.605469 29.851562 34.101562 32.921875 22.386719 32.921875 C 10.667969 32.921875 1.164062 29.851562 1.164062 26.0625 C 1.164062 22.277344 10.667969 19.203125 22.386719 19.203125 C 34.101562 19.203125 43.605469 22.277344 43.605469 26.0625 Z M 43.605469 26.0625 "/>
<path style=" stroke:none;fill-rule:nonzero;fill:url(#linear2);" d="M 1.164062 25.984375 C 1.164062 29.773438 10.667969 32.839844 22.386719 32.839844 C 34.101562 32.839844 43.605469 29.773438 43.605469 25.984375 L 43.605469 31.628906 C 43.605469 35.417969 34.101562 38.488281 22.386719 38.488281 C 10.667969 38.488281 1.164062 35.417969 1.164062 31.628906 Z M 1.164062 25.984375 "/>
<path style=" stroke:none;fill-rule:nonzero;fill:url(#radial3);" d="M 43.605469 17.023438 C 43.605469 20.8125 34.101562 23.882812 22.386719 23.882812 C 10.667969 23.882812 1.164062 20.8125 1.164062 17.023438 C 1.164062 13.234375 10.667969 10.164062 22.386719 10.164062 C 34.101562 10.164062 43.605469 13.234375 43.605469 17.023438 Z M 43.605469 17.023438 "/>
<path style=" stroke:none;fill-rule:nonzero;fill:url(#linear3);" d="M 1.164062 16.945312 C 1.164062 20.730469 10.667969 23.800781 22.386719 23.800781 C 34.101562 23.800781 43.605469 20.730469 43.605469 16.945312 L 43.605469 22.59375 C 43.605469 26.382812 34.101562 29.453125 22.386719 29.453125 C 10.667969 29.453125 1.164062 26.382812 1.164062 22.59375 Z M 1.164062 16.945312 "/>
<path style=" stroke:none;fill-rule:nonzero;fill:url(#radial4);" d="M 43.605469 7.988281 C 43.605469 11.773438 34.101562 14.847656 22.386719 14.847656 C 10.667969 14.847656 1.164062 11.773438 1.164062 7.988281 C 1.164062 4.199219 10.667969 1.128906 22.386719 1.128906 C 34.101562 1.128906 43.605469 4.199219 43.605469 7.988281 Z M 43.605469 7.988281 "/>
<path style=" stroke:none;fill-rule:nonzero;fill:url(#linear4);" d="M 1.164062 7.90625 C 1.164062 11.695312 10.667969 14.765625 22.386719 14.765625 C 34.101562 14.765625 43.605469 11.695312 43.605469 7.90625 L 43.605469 13.554688 C 43.605469 17.339844 34.101562 20.414062 22.386719 20.414062 C 10.667969 20.414062 1.164062 17.339844 1.164062 13.554688 Z M 1.164062 7.90625 "/>
<path style="fill-rule:nonzero;fill:rgb(25.490196%,41.176471%,88.235294%);fill-opacity:1;stroke-width:1;stroke-linecap:butt;stroke-linejoin:miter;stroke:rgb(0%,0%,0%);stroke-opacity:1;stroke-miterlimit:4;" d="M 217.676442 450.120606 C 215.932752 450.189765 214.189062 450.293503 212.478904 450.328083 C 223.242838 464.15986 239.506101 483.939301 254.126273 497.079489 C 254.461598 497.04491 254.796923 497.010331 255.132248 496.975751 C 253.757415 495.315938 252.416115 493.656125 251.074815 491.961732 C 239.506101 477.991637 228.339778 463.986963 217.676442 450.120606 Z M 217.676442 450.120606 " transform="matrix(0.116491,0,0,0.112965,0.00192974,0)"/>
<path style="fill-rule:nonzero;fill:rgb(25.490196%,41.176471%,88.235294%);fill-opacity:1;stroke-width:1;stroke-linecap:butt;stroke-linejoin:miter;stroke:rgb(0%,0%,0%);stroke-opacity:1;stroke-miterlimit:4;" d="M 119.828599 365.712186 C 121.069302 367.717794 122.410602 369.654243 123.751902 371.590692 C 123.751902 371.590692 144.709716 362.842093 167.00883 380.754244 C 146.721666 369.619663 129.821285 379.889758 129.821285 379.889758 C 132.202093 383.001908 134.683498 386.010319 137.198436 388.984151 C 137.399631 388.638357 152.120399 377.26172 171.669848 388.914993 C 147.526446 385.111254 141.859453 393.963591 141.859453 393.963591 C 145.950419 398.424339 150.041384 402.781349 154.568272 406.930882 C 154.568272 406.930882 168.081871 406.515929 186.088825 420.658921 C 188.100775 420.658921 190.112725 420.6935 192.158208 420.6935 C 193.365378 420.6935 194.60608 420.6935 195.880315 420.658921 C 183.741549 403.680415 172.675823 386.736488 162.817268 369.896299 C 147.761174 369.100972 133.37573 367.683215 119.828599 365.712186 Z M 175.861411 370.44957 C 184.948719 387.013123 194.840808 403.749573 205.336481 420.555183 C 205.839469 420.520603 206.342456 420.520603 206.845444 420.520603 C 198.026395 397.006582 196.986888 380.892562 198.194058 370.657047 C 196.182108 370.691626 194.136625 370.726206 192.158208 370.726206 C 186.625345 370.726206 181.226612 370.622467 175.861411 370.44957 Z M 175.861411 370.44957 " transform="matrix(0.116491,0,0,0.112965,0.00192974,0)"/>
<path style="fill-rule:nonzero;fill:rgb(25.490196%,41.176471%,88.235294%);fill-opacity:1;stroke-width:1;stroke-linecap:butt;stroke-linejoin:miter;stroke:rgb(0%,0%,0%);stroke-opacity:1;stroke-miterlimit:4;" d="M 84.451809 278.226196 C 88.408644 296.760778 94.075637 314.811247 101.62045 331.928071 C 115.268179 334.556109 130.02248 336.596296 145.615094 337.979473 C 137.064306 320.413116 130.089545 303.019657 125.093202 285.729935 C 110.540096 283.793487 96.858835 281.303767 84.451809 278.226196 Z M 138.170878 287.28601 C 143.938469 304.299096 151.181489 321.554238 159.63168 338.982277 C 164.393295 339.293492 169.255508 339.535548 174.117721 339.708446 C 177.437439 312.667321 188.03371 310.177601 188.03371 310.177601 C 186.222955 303.607507 184.479264 296.795357 182.936769 289.914048 C 167.444753 289.671992 152.422192 288.738347 138.170878 287.28601 Z M 192.258805 324.666388 C 192.258805 324.666388 184.378667 325.703771 178.409881 339.812184 C 182.936769 339.950502 187.530722 340.01966 192.158208 340.01966 C 193.834833 340.01966 195.477925 339.985081 197.15455 339.950502 C 195.645588 335.455174 194.002495 330.371996 192.258805 324.666388 Z M 192.258805 324.666388 " transform="matrix(0.116491,0,0,0.112965,0.00192974,0)"/>
<path style="fill-rule:nonzero;fill:rgb(25.490196%,41.176471%,88.235294%);fill-opacity:1;stroke-width:1;stroke-linecap:butt;stroke-linejoin:miter;stroke:rgb(0%,0%,0%);stroke-opacity:1;stroke-miterlimit:4;" d="M 80.226713 197.137403 C 78.013568 214.600022 77.980036 232.408435 79.421933 246.931801 C 91.258907 250.07853 104.235985 252.706568 118.151974 254.781334 C 115.603504 237.906566 115.134049 221.170116 117.011869 204.606563 C 103.833595 202.600955 91.527167 200.076656 80.226713 197.137403 Z M 123.248914 205.505628 C 123.248914 222.103761 125.394995 239.013108 129.318297 256.30283 C 144.743249 258.17012 161.207708 259.345821 178.242219 259.795353 C 176.632659 243.957969 175.693749 226.529929 174.084189 209.689741 C 156.27843 209.10189 139.210386 207.649554 123.248914 205.505628 Z M 123.248914 205.505628 " transform="matrix(0.116491,0,0,0.112965,0.00192974,0)"/>
<path style="fill-rule:nonzero;fill:rgb(25.490196%,41.176471%,88.235294%);fill-opacity:1;stroke-width:1;stroke-linecap:butt;stroke-linejoin:miter;stroke:rgb(0%,0%,0%);stroke-opacity:1;stroke-miterlimit:4;" d="M 127.272815 128.047676 C 121.773484 127.978518 116.777141 129.154219 112.350851 131.367303 L 112.350851 131.332724 C 99.977358 137.487864 91.594232 151.561698 86.262564 168.678522 C 97.563017 171.375718 109.835913 173.657961 122.880057 175.456092 C 125.1938 167.5374 128.14466 159.653287 131.665573 151.838333 C 129.050037 159.757025 127.105152 167.744877 125.696787 175.801887 C 139.713373 177.634597 154.534739 178.914037 169.959691 179.536467 C 164.259165 150.524314 153.159907 128.497209 127.272815 128.047676 Z M 127.272815 128.047676 " transform="matrix(0.116491,0,0,0.112965,0.00192974,0)"/>
</g>
</svg>
