<?xml version="1.0" encoding="UTF-8"?>
<svg xmlns="http://www.w3.org/2000/svg" xmlns:xlink="http://www.w3.org/1999/xlink" width="39pt" height="51pt" viewBox="0 0 39 51" version="1.1">
<defs>
<radialGradient id="radial0" gradientUnits="userSpaceOnUse" cx="376.02" cy="287.71" fx="376.02" fy="287.71" r="182.64" gradientTransform="matrix(0.102817,-0.000968794,0.000363247,0.0372316,-19.599739,28.785288)">
<stop offset="0" style="stop-color:rgb(89.019608%,89.019608%,89.019608%);stop-opacity:1;"/>
<stop offset="1" style="stop-color:rgb(40%,39.215686%,48.235294%);stop-opacity:0.898039;"/>
</radialGradient>
<linearGradient id="linear0" gradientUnits="userSpaceOnUse" x1="425.67" y1="362.36" x2="559.07" y2="362.36" spreadMethod="reflect" gradientTransform="matrix(0.101477,0,0,0.0997204,-18.988847,10.804425)">
<stop offset="0" style="stop-color:rgb(89.019608%,89.019608%,89.019608%);stop-opacity:1;"/>
<stop offset="1" style="stop-color:rgb(40%,39.215686%,48.235294%);stop-opacity:0.898039;"/>
</linearGradient>
<radialGradient id="radial1" gradientUnits="userSpaceOnUse" cx="376.02" cy="287.71" fx="376.02" fy="287.71" r="182.64" gradientTransform="matrix(0.102817,-0.000968794,0.000363247,0.0372316,-19.599739,20.807657)">
<stop offset="0" style="stop-color:rgb(89.019608%,89.019608%,89.019608%);stop-opacity:1;"/>
<stop offset="1" style="stop-color:rgb(40%,39.215686%,48.235294%);stop-opacity:0.898039;"/>
</radialGradient>
<linearGradient id="linear1" gradientUnits="userSpaceOnUse" x1="425.67" y1="362.36" x2="559.07" y2="362.36" spreadMethod="reflect" gradientTransform="matrix(0.101477,0,0,0.0997204,-18.988847,2.826794)">
<stop offset="0" style="stop-color:rgb(89.019608%,89.019608%,89.019608%);stop-opacity:1;"/>
<stop offset="1" style="stop-color:rgb(40%,39.215686%,48.235294%);stop-opacity:0.898039;"/>
</linearGradient>
<radialGradient id="radial2" gradientUnits="userSpaceOnUse" cx="376.02" cy="287.71" fx="376.02" fy="287.71" r="182.64" gradientTransform="matrix(0.102817,-0.000968794,0.000363247,0.0372316,-19.599739,12.830026)">
<stop offset="0" style="stop-color:rgb(89.019608%,89.019608%,89.019608%);stop-opacity:1;"/>
<stop offset="1" style="stop-color:rgb(40%,39.215686%,48.235294%);stop-opacity:0.898039;"/>
</radialGradient>
<linearGradient id="linear2" gradientUnits="userSpaceOnUse" x1="425.67" y1="362.36" x2="559.07" y2="362.36" spreadMethod="reflect" gradientTransform="matrix(0.101477,0,0,0.0997204,-18.988847,-5.150837)">
<stop offset="0" style="stop-color:rgb(89.019608%,89.019608%,89.019608%);stop-opacity:1;"/>
<stop offset="1" style="stop-color:rgb(40%,39.215686%,48.235294%);stop-opacity:0.898039;"/>
</linearGradient>
<radialGradient id="radial3" gradientUnits="userSpaceOnUse" cx="376.02" cy="287.71" fx="376.02" fy="287.71" r="182.64" gradientTransform="matrix(0.102817,-0.000968794,0.000363247,0.0372316,-19.599739,4.852394)">
<stop offset="0" style="stop-color:rgb(89.019608%,89.019608%,89.019608%);stop-opacity:1;"/>
<stop offset="1" style="stop-color:rgb(40%,39.215686%,48.235294%);stop-opacity:0.898039;"/>
</radialGradient>
<linearGradient id="linear3" gradientUnits="userSpaceOnUse" x1="425.67" y1="362.36" x2="559.07" y2="362.36" spreadMethod="reflect" gradientTransform="matrix(0.101477,0,0,0.0997204,-18.988847,-13.128469)">
<stop offset="0" style="stop-color:rgb(89.019608%,89.019608%,89.019608%);stop-opacity:1;"/>
<stop offset="1" style="stop-color:rgb(40%,39.215686%,48.235294%);stop-opacity:0.898039;"/>
</linearGradient>
<radialGradient id="radial4" gradientUnits="userSpaceOnUse" cx="376.02" cy="287.71" fx="376.02" fy="287.71" r="182.64" gradientTransform="matrix(0.102817,-0.000968794,0.000363247,0.0372316,-19.599739,-3.125237)">
<stop offset="0" style="stop-color:rgb(89.019608%,89.019608%,89.019608%);stop-opacity:1;"/>
<stop offset="1" style="stop-color:rgb(40%,39.215686%,48.235294%);stop-opacity:0.898039;"/>
</radialGradient>
<linearGradient id="linear4" gradientUnits="userSpaceOnUse" x1="425.67" y1="362.36" x2="559.07" y2="362.36" spreadMethod="reflect" gradientTransform="matrix(0.101477,0,0,0.0997204,-18.988847,-21.1061)">
<stop offset="0" style="stop-color:rgb(89.019608%,89.019608%,89.019608%);stop-opacity:1;"/>
<stop offset="1" style="stop-color:rgb(40%,39.215686%,48.235294%);stop-opacity:0.898039;"/>
</linearGradient>
</defs>
<g id="surface1">
<path style=" stroke:none;fill-rule:nonzero;fill:url(#radial0);" d="M 37.984375 38.960938 C 37.984375 42.304688 29.707031 45.015625 19.5 45.015625 C 9.292969 45.015625 1.015625 42.304688 1.015625 38.960938 C 1.015625 35.617188 9.292969 32.90625 19.5 32.90625 C 29.707031 32.90625 37.984375 35.617188 37.984375 38.960938 Z M 37.984375 38.960938 "/>
<path style=" stroke:none;fill-rule:nonzero;fill:url(#linear0);" d="M 1.015625 38.890625 C 1.015625 42.234375 9.292969 44.945312 19.5 44.945312 C 29.707031 44.945312 37.984375 42.234375 37.984375 38.890625 L 37.984375 43.878906 C 37.984375 47.222656 29.707031 49.929688 19.5 49.929688 C 9.292969 49.929688 1.015625 47.21875 1.015625 43.878906 Z M 1.015625 38.890625 "/>
<path style=" stroke:none;fill-rule:nonzero;fill:url(#radial1);" d="M 37.984375 30.984375 C 37.984375 34.328125 29.707031 37.039062 19.5 37.039062 C 9.292969 37.039062 1.015625 34.328125 1.015625 30.984375 C 1.015625 27.640625 9.292969 24.929688 19.5 24.929688 C 29.707031 24.929688 37.984375 27.640625 37.984375 30.984375 Z M 37.984375 30.984375 "/>
<path style=" stroke:none;fill-rule:nonzero;fill:url(#linear1);" d="M 1.015625 30.914062 C 1.015625 34.257812 9.292969 36.96875 19.5 36.96875 C 29.707031 36.96875 37.984375 34.257812 37.984375 30.914062 L 37.984375 35.898438 C 37.984375 39.242188 29.707031 41.953125 19.5 41.953125 C 9.292969 41.953125 1.015625 39.242188 1.015625 35.898438 Z M 1.015625 30.914062 "/>
<path style=" stroke:none;fill-rule:nonzero;fill:url(#radial2);" d="M 37.984375 23.007812 C 37.984375 26.351562 29.707031 29.0625 19.5 29.0625 C 9.292969 29.0625 1.015625 26.351562 1.015625 23.007812 C 1.015625 19.664062 9.292969 16.953125 19.5 16.953125 C 29.707031 16.953125 37.984375 19.664062 37.984375 23.007812 Z M 37.984375 23.007812 "/>
<path style=" stroke:none;fill-rule:nonzero;fill:url(#linear2);" d="M 1.015625 22.9375 C 1.015625 26.28125 9.292969 28.988281 19.5 28.988281 C 29.707031 28.988281 37.984375 26.28125 37.984375 22.9375 L 37.984375 27.921875 C 37.984375 31.265625 29.707031 33.976562 19.5 33.976562 C 9.292969 33.976562 1.015625 31.265625 1.015625 27.921875 Z M 1.015625 22.9375 "/>
<path style=" stroke:none;fill-rule:nonzero;fill:url(#radial3);" d="M 37.984375 15.027344 C 37.984375 18.371094 29.707031 21.082031 19.5 21.082031 C 9.292969 21.082031 1.015625 18.371094 1.015625 15.027344 C 1.015625 11.683594 9.292969 8.972656 19.5 8.972656 C 29.707031 8.972656 37.984375 11.683594 37.984375 15.027344 Z M 37.984375 15.027344 "/>
<path style=" stroke:none;fill-rule:nonzero;fill:url(#linear3);" d="M 1.015625 14.957031 C 1.015625 18.300781 9.292969 21.011719 19.5 21.011719 C 29.707031 21.011719 37.984375 18.300781 37.984375 14.957031 L 37.984375 19.945312 C 37.984375 23.289062 29.707031 26 19.5 26 C 9.292969 26 1.015625 23.289062 1.015625 19.945312 Z M 1.015625 14.957031 "/>
<path style=" stroke:none;fill-rule:nonzero;fill:url(#radial4);" d="M 37.984375 7.050781 C 37.984375 10.394531 29.707031 13.105469 19.5 13.105469 C 9.292969 13.105469 1.015625 10.394531 1.015625 7.050781 C 1.015625 3.707031 9.292969 0.996094 19.5 0.996094 C 29.707031 0.996094 37.984375 3.707031 37.984375 7.050781 Z M 37.984375 7.050781 "/>
<path style=" stroke:none;fill-rule:nonzero;fill:url(#linear4);" d="M 1.015625 6.980469 C 1.015625 10.324219 9.292969 13.035156 19.5 13.035156 C 29.707031 13.035156 37.984375 10.324219 37.984375 6.980469 L 37.984375 11.964844 C 37.984375 15.308594 29.707031 18.019531 19.5 18.019531 C 9.292969 18.019531 1.015625 15.308594 1.015625 11.964844 Z M 1.015625 6.980469 "/>
<path style="fill-rule:nonzero;fill:rgb(25.490196%,41.176471%,88.235294%);fill-opacity:1;stroke-width:1;stroke-linecap:butt;stroke-linejoin:miter;stroke:rgb(0%,0%,0%);stroke-opacity:1;stroke-miterlimit:4;" d="M 217.666458 450.125776 C 215.934232 450.20412 214.202007 450.282464 212.469781 450.321636 C 223.248074 464.149362 239.492501 483.931236 254.120184 497.093038 C 254.46663 497.053866 254.813075 497.014694 255.121026 496.975522 C 253.773739 495.330296 252.426453 493.645899 251.079166 491.961502 C 239.492501 477.977088 228.329269 463.992674 217.666458 450.125776 Z M 217.666458 450.125776 " transform="matrix(0.101477,0,0,0.0997204,0.00168102,0)"/>
<path style="fill-rule:nonzero;fill:rgb(25.490196%,41.176471%,88.235294%);fill-opacity:1;stroke-width:1;stroke-linecap:butt;stroke-linejoin:miter;stroke:rgb(0%,0%,0%);stroke-opacity:1;stroke-miterlimit:4;" d="M 119.814956 365.710055 C 121.085254 367.707829 122.394047 369.66643 123.741334 371.585859 C 123.741334 371.585859 144.720511 362.850497 167.008481 380.752114 C 146.722194 369.627258 129.82337 379.890329 129.82337 379.890329 C 132.209992 382.98492 134.673602 386.001166 137.2142 388.97824 C 137.406669 388.625692 152.111341 377.265803 171.666243 388.899896 C 147.530566 385.100209 141.871962 393.953087 141.871962 393.953087 C 145.952316 398.418699 150.03267 402.766794 154.57495 406.919029 C 154.57495 406.919029 168.08631 406.527309 186.101457 420.668411 C 188.10314 420.668411 190.104823 420.707583 192.145 420.707583 C 193.376805 420.707583 194.60861 420.707583 195.878909 420.668411 C 183.753329 403.66775 172.667085 386.745434 162.812646 369.901462 C 147.761529 369.118022 133.36481 367.668657 119.814956 365.710055 Z M 175.862079 370.449871 C 184.94664 387.019638 194.839573 403.746095 205.348409 420.550895 C 205.84883 420.511723 206.34925 420.511723 206.849671 420.511723 C 198.034567 397.008506 196.995232 380.908802 198.188543 370.645731 C 196.18686 370.684903 194.146683 370.724075 192.145 370.724075 C 186.640372 370.724075 181.212731 370.606559 175.862079 370.449871 Z M 175.862079 370.449871 " transform="matrix(0.101477,0,0,0.0997204,0.00168102,0)"/>
<path style="fill-rule:nonzero;fill:rgb(25.490196%,41.176471%,88.235294%);fill-opacity:1;stroke-width:1;stroke-linecap:butt;stroke-linejoin:miter;stroke:rgb(0%,0%,0%);stroke-opacity:1;stroke-miterlimit:4;" d="M 84.439058 278.238916 C 88.40393 296.767286 94.062534 314.825591 101.607339 331.943767 C 115.272675 334.568293 130.01584 336.605238 145.605871 337.976259 C 137.060224 320.427191 130.092828 303.03481 125.08862 285.720774 C 110.537925 283.801344 96.872589 281.294334 84.439058 278.238916 Z M 138.176547 287.287655 C 143.950633 304.288315 151.187487 321.563179 159.617652 338.994732 C 164.390896 339.308108 169.241128 339.54314 174.129853 339.699828 C 177.440329 312.671129 188.026152 310.164119 188.026152 310.164119 C 186.216939 303.62239 184.484713 296.806458 182.944957 289.912181 C 167.431914 289.677148 152.419292 288.73702 138.176547 287.287655 Z M 192.260482 324.65777 C 192.260482 324.65777 184.369232 325.715414 178.402677 339.817345 C 182.944957 339.934861 187.525732 340.013205 192.145 340.013205 C 193.838732 340.013205 195.49397 339.974033 197.149207 339.934861 C 195.647945 335.469249 193.992707 330.376886 192.260482 324.65777 Z M 192.260482 324.65777 " transform="matrix(0.101477,0,0,0.0997204,0.00168102,0)"/>
<path style="fill-rule:nonzero;fill:rgb(25.490196%,41.176471%,88.235294%);fill-opacity:1;stroke-width:1;stroke-linecap:butt;stroke-linejoin:miter;stroke:rgb(0%,0%,0%);stroke-opacity:1;stroke-miterlimit:4;" d="M 80.243223 197.152818 C 78.010577 214.58437 77.972083 232.407643 79.434851 246.940466 C 91.252479 250.074228 104.224925 252.698754 118.159718 254.774871 C 115.61912 237.891727 115.118699 221.165271 117.004901 204.595503 C 103.839986 202.59773 91.521937 200.09072 80.243223 197.152818 Z M 123.240913 205.49646 C 123.240913 222.1054 125.396572 239.027716 129.32295 256.30258 C 144.759005 258.182838 161.195902 259.357999 178.248701 259.788891 C 176.631957 243.963392 175.708103 226.531839 174.091359 209.687867 C 156.268682 209.100286 139.215883 207.650921 123.240913 205.49646 Z M 123.240913 205.49646 " transform="matrix(0.101477,0,0,0.0997204,0.00168102,0)"/>
<path style="fill-rule:nonzero;fill:rgb(25.490196%,41.176471%,88.235294%);fill-opacity:1;stroke-width:1;stroke-linecap:butt;stroke-linejoin:miter;stroke:rgb(0%,0%,0%);stroke-opacity:1;stroke-miterlimit:4;" d="M 127.282773 128.05336 C 121.778145 127.975016 116.773937 129.150177 112.347138 131.382983 L 112.347138 131.343811 C 99.990595 137.493819 91.598924 151.556577 86.248272 168.674753 C 97.565479 171.377623 109.845035 173.649601 122.894468 175.451514 C 125.204102 167.538765 128.129639 159.665187 131.671078 151.830781 C 129.053492 159.743531 127.090303 167.734625 125.704523 175.804063 C 139.716304 177.645148 154.536456 178.898653 169.972512 179.525405 C 164.275414 150.538104 153.150676 128.484252 127.282773 128.05336 Z M 127.282773 128.05336 " transform="matrix(0.101477,0,0,0.0997204,0.00168102,0)"/>
</g>
</svg>
